# xmcd CD database file generated by Grip 2.94
# 
# Track frame offsets:
#       150
#       18486
#       38719
#       56687
#       76063
#       95776
#       114040
#       131092
#       149062
#       164331
#       180110
#       197420
#       220486
#       239268
# 
# Disc length: 3483 seconds
# 
# Revision: 3
# Processed by: cddbd v1.4b41PL3 Copyright (c) Steve Scherf et al.
# Submitted via: Grip 2.94
# 
DISCID=bb0d990e
DTITLE=Doc Scanlon's Rhythm Boys - Live at Albany's First Night
DYEAR=1900
DGENRE=
TTITLE0=Caledonia
TTITLE1=Hold Me, Thrill Me, Kiss Me
TTITLE2=I Knew The Bride
TTITLE3=Reet, Petite and Gone
TTITLE4=Lucky Old Sun
TTITLE5=Sing, Sing, Sing
TTITLE6=Fly Me To The Moon
TTITLE7=Choo Choo Ch'Boogie
TTITLE8=I've Got A Feelin' You're Foolin'
TTITLE9=20 Flight Rock
TTITLE10=The Toaster Song
TTITLE11=Come Rain Or Come Shine
TTITLE12=Jump, Jive and Wail
TTITLE13=Run Run Rudolph
EXTD=
EXTT0=
EXTT1=
EXTT2=
EXTT3=
EXTT4=
EXTT5=
EXTT6=
EXTT7=
EXTT8=
EXTT9=
EXTT10=
EXTT11=
EXTT12=
EXTT13=
PLAYORDER=
